<svg width="18" height="21" viewBox="0 0 18 21" fill="none" xmlns="http://www.w3.org/2000/svg">
<path d="M14.5111 18.2684C14.3353 18.2777 14.1592 18.2777 13.9834 18.2684C13.0798 18.1708 12.438 18.2899 11.9497 19.3276C11.3491 20.6046 10.0732 21.1151 8.67353 20.9785C7.25851 20.8408 6.23202 20.0686 5.68711 18.7145C5.55185 18.3797 5.40507 18.2499 5.03669 18.2606C3.98142 18.2909 2.92615 18.2772 1.87088 18.2694C0.778197 18.2606 0.0730859 17.5079 0.0107291 16.4057C-0.0852044 14.667 0.456819 13.2622 1.85361 12.1971C2.08481 12.0204 2.22583 11.5909 2.23735 11.2707C2.29491 9.85806 2.21048 8.43957 2.3256 7.02988C2.5568 4.21243 4.51385 1.91045 7.20382 1.16264C7.34658 1.13087 7.48094 1.06822 7.5978 0.978947C7.71467 0.889672 7.81129 0.77586 7.88111 0.645234C8.40107 -0.251934 9.64245 -0.195311 10.1835 0.701858C10.3029 0.89402 10.4833 1.03874 10.6948 1.11188C13.71 1.96121 15.7237 4.61464 15.739 7.79427C15.7448 8.93355 15.7544 10.0728 15.7333 11.2111C15.7246 11.6993 15.882 12.0458 16.2686 12.3319C17.7479 13.4292 18.1345 14.9804 17.957 16.7337C17.8716 17.5753 17.1253 18.2372 16.282 18.2635C15.6911 18.283 15.0992 18.2635 14.5072 18.2635L14.5111 18.2684ZM16.1746 16.437C16.3156 15.3016 16.0451 14.3976 15.1423 13.7396C14.2981 13.1226 13.9307 12.2665 13.9384 11.2199C13.948 10.0484 13.948 8.87693 13.9384 7.70544C13.9333 7.39757 13.9012 7.09079 13.8424 6.78874C13.3551 4.189 11.0776 2.50107 8.40107 2.74806C5.99122 2.96967 4.06008 5.19551 4.05816 7.75132C4.05816 8.70999 4.01499 9.67159 4.06872 10.6283C4.14546 12.0126 3.75981 13.1226 2.60861 13.9671C1.80469 14.5528 1.70683 15.4695 1.82867 16.437H16.1746ZM10.4991 18.3035H7.51561C8.19098 19.4858 9.77484 19.4916 10.4991 18.3035Z" fill="black"/>
</svg>
