<svg width="15" height="14" viewBox="0 0 15 14" fill="none" xmlns="http://www.w3.org/2000/svg">
<path d="M7.36757 2.83842L6.88211 2.25638L6.72433 2.06721L6.71897 2.06079L6.71901 2.06076C5.76251 0.887659 4.36776 0.494094 3.15666 0.926468L7.36757 2.83842ZM7.36757 2.83842L7.94448 2.34687M7.36757 2.83842L7.94448 2.34687M7.94448 2.34687C8.11852 2.19858 8.28811 2.04297 8.44204 1.90173M7.94448 2.34687L8.44204 1.90173M1.52809 6.89775L1.53315 6.90526C2.04592 7.66645 2.62234 8.38066 3.25588 9.03986C4.22619 10.0217 5.21921 10.9668 6.2228 11.9219C6.64611 12.3247 7.07131 12.7294 7.49747 13.1393C7.79419 12.8562 8.0887 12.5794 8.38076 12.3049C9.00935 11.7141 9.62662 11.134 10.2302 10.5239L10.2362 10.5178L10.2423 10.5119C11.2339 9.55426 12.1773 8.54595 13.0689 7.49082C14.0384 6.30951 14.4693 4.98266 14.1409 3.45245C13.9098 2.37981 13.1371 1.4918 12.1665 1.04858C11.2066 0.610312 10.1048 0.626763 9.17476 1.2821L1.52809 6.89775ZM1.52809 6.89775L1.52285 6.89036M1.52809 6.89775L1.52285 6.89036M1.52285 6.89036C0.991879 6.1418 0.719999 5.23188 0.752629 4.30507M1.52285 6.89036L0.752629 4.30507M8.44204 1.90173C8.49906 1.84941 8.55393 1.79907 8.60608 1.75179M8.44204 1.90173L8.60608 1.75179M8.60608 1.75179C8.80875 1.56808 8.98897 1.41313 9.17459 1.28222L8.60608 1.75179ZM0.752629 4.30507C0.812047 2.73909 1.58 1.4908 3.15649 0.92653L0.752629 4.30507Z" stroke="white" stroke-width="1.5"/>
<path d="M7.36757 2.83842L6.88211 2.25638L6.72433 2.06721L6.71897 2.06079L6.71901 2.06076C5.76251 0.887659 4.36776 0.494094 3.15666 0.926468L7.36757 2.83842ZM7.36757 2.83842L7.94448 2.34687M7.36757 2.83842L7.94448 2.34687M7.94448 2.34687C8.11852 2.19858 8.28811 2.04297 8.44204 1.90173M7.94448 2.34687L8.44204 1.90173M1.52809 6.89775L1.53315 6.90526C2.04592 7.66645 2.62234 8.38066 3.25588 9.03986C4.22619 10.0217 5.21921 10.9668 6.2228 11.9219C6.64611 12.3247 7.07131 12.7294 7.49747 13.1393C7.79419 12.8562 8.0887 12.5794 8.38076 12.3049C9.00935 11.7141 9.62662 11.134 10.2302 10.5239L10.2362 10.5178L10.2423 10.5119C11.2339 9.55426 12.1773 8.54595 13.0689 7.49082C14.0384 6.30951 14.4693 4.98266 14.1409 3.45245C13.9098 2.37981 13.1371 1.4918 12.1665 1.04858C11.2066 0.610312 10.1048 0.626763 9.17476 1.2821L1.52809 6.89775ZM1.52809 6.89775L1.52285 6.89036M1.52809 6.89775L1.52285 6.89036M1.52285 6.89036C0.991879 6.1418 0.719999 5.23188 0.752629 4.30507M1.52285 6.89036L0.752629 4.30507M8.44204 1.90173C8.49906 1.84941 8.55393 1.79907 8.60608 1.75179M8.44204 1.90173L8.60608 1.75179M8.60608 1.75179C8.80875 1.56808 8.98897 1.41313 9.17459 1.28222L8.60608 1.75179ZM0.752629 4.30507C0.812047 2.73909 1.58 1.4908 3.15649 0.92653L0.752629 4.30507Z" stroke="#C4C4C4" stroke-width="1.5"/>
</svg>
