<svg width="20" height="20" viewBox="0 0 20 20" fill="none" xmlns="http://www.w3.org/2000/svg">
<g clip-path="url(#clip0_60_3)">
<path d="M19.4707 6.51036C17.2879 4.97274 15.1051 3.42967 12.9222 1.88114L10.5703 0.245368C10.4251 0.101526 10.229 0.020813 10.0246 0.020813C9.82014 0.020813 9.62399 0.101526 9.47886 0.245368L5.82811 2.81897C4.04184 4.0767 2.25557 5.33443 0.469303 6.59215C0.334232 6.6726 0.222461 6.7868 0.144959 6.92352C0.0674572 7.06023 0.0268944 7.21475 0.0272855 7.37187C0.0272855 9.66558 0.0272855 11.9611 0.0272855 14.2585V19.1658C0.0272855 19.7492 0.294689 20.0109 0.889505 20.0109H7.04501C7.79262 20.0109 8.01638 19.7874 8.01638 19.0458V13.4624H9.27149C10.1282 13.4624 10.985 13.4624 11.8418 13.4624C11.8972 13.4481 11.9554 13.4481 12.0109 13.4624C12.0244 13.5198 12.0244 13.5795 12.0109 13.6369C12.0109 15.1036 12.0109 16.5703 12.0109 18.0316V19.1221C12.0109 19.7328 12.2674 19.9836 12.8895 19.9836H19.0396C19.7763 19.9836 19.9946 19.7601 19.9946 19.0404V16.1614C19.9946 13.2824 19.9946 10.4035 19.9946 7.52454C20.0036 7.32448 19.96 7.12554 19.8681 6.94759C19.7762 6.76963 19.6391 6.61887 19.4707 6.51036V6.51036ZM6.5539 18.3969C6.56421 18.4455 6.56421 18.4956 6.5539 18.5442C6.51621 18.553 6.47698 18.553 6.43929 18.5442V18.5442C5.34789 18.5442 4.21829 18.5442 3.10506 18.5442H1.46795V16.3795C1.46795 13.5442 1.46795 10.7107 1.46795 7.87895C1.46153 7.79995 1.47823 7.72078 1.51601 7.65108C1.55379 7.58138 1.61104 7.52416 1.68078 7.48637C4.40929 5.57434 7.13781 3.6514 9.86632 1.71756C10.0137 1.61396 10.0573 1.61396 10.1992 1.71756C12.9204 3.64777 15.6489 5.5707 18.3847 7.48637C18.4577 7.52796 18.5171 7.58969 18.5558 7.66416C18.5945 7.73863 18.6109 7.82267 18.603 7.90622C18.603 11.385 18.603 14.8637 18.603 18.3424C18.6167 18.4016 18.6167 18.4632 18.603 18.5224C18.5454 18.5347 18.4859 18.5347 18.4284 18.5224C16.6876 18.5224 15.1542 18.5224 13.7081 18.5224C13.5662 18.5224 13.528 18.5224 13.528 18.5224C13.528 18.5224 13.528 18.4951 13.528 18.3206C13.528 16.9029 13.528 15.4798 13.528 14.0622V12.8571C13.528 12.2519 13.2879 12.0011 12.6876 12.0011H7.48157C6.87584 12.0011 6.6412 12.241 6.6412 12.8571C6.54843 14.711 6.54299 16.554 6.5539 18.3969Z" fill="black"/>
</g>
<defs>
<clipPath id="clip0_60_3">
<rect width="20" height="20" fill="white"/>
</clipPath>
</defs>
</svg>
