<svg width="19" height="19" viewBox="0 0 19 19" fill="none" xmlns="http://www.w3.org/2000/svg">
<path d="M7.35575 12.6548V18.2439C7.35575 18.8519 7.21817 18.9841 6.60961 18.9841H0.640334C0.174648 18.9841 0.00529542 18.8255 3.52662e-06 18.3655C3.52662e-06 14.5478 3.52662e-06 10.7319 3.52662e-06 6.91776C-0.000384394 6.79672 0.031237 6.67773 0.0916362 6.57281C0.152036 6.4679 0.239084 6.38077 0.34399 6.32026L6.77365 1.79404L9.07561 0.181313C9.12862 0.124129 9.19289 0.0785069 9.26437 0.0473064C9.33586 0.0161058 9.41304 0 9.49105 0C9.56905 0 9.6462 0.0161058 9.71769 0.0473064C9.78918 0.0785069 9.85344 0.124129 9.90645 0.181313C12.7958 2.21705 15.6746 4.25279 18.5693 6.27795C18.71 6.36637 18.8242 6.49121 18.8997 6.63924C18.9751 6.78726 19.0091 6.95294 18.9979 7.11869C18.9979 10.82 18.9979 14.5637 18.9979 18.2809C18.9979 18.8731 18.8656 19 18.2676 19H12.2931C11.801 19 11.6422 18.8467 11.6422 18.3655C11.6422 16.5888 11.6422 14.8122 11.6422 13.0355C11.6422 12.7289 11.5575 12.6443 11.2506 12.6496C10.0652 12.6496 8.87982 12.6496 7.69444 12.6496L7.35575 12.6548ZM1.00548 17.9425C1.1219 17.9425 1.20656 17.9689 1.29123 17.9689C2.8788 17.9689 4.46639 17.9689 6.01692 17.9689C6.2921 17.9689 6.35028 17.8632 6.35028 17.6094C6.35028 15.8221 6.35028 14.0367 6.35028 12.253C6.35028 11.7665 6.49318 11.6185 6.96945 11.6185H12.0179C12.4889 11.6185 12.637 11.7771 12.637 12.253C12.637 14.019 12.637 15.7851 12.637 17.5406C12.637 17.8473 12.7006 17.9636 13.0392 17.9583C14.5562 17.9583 16.0786 17.9583 17.6061 17.9583C17.9131 17.9583 18.003 17.8684 18.003 17.5671C18.003 14.1935 18.003 10.82 18.003 7.44652C18.0108 7.33333 17.9873 7.2202 17.935 7.11948C17.8827 7.01876 17.8037 6.93434 17.7067 6.87546C15.0572 5.01421 12.4113 3.14944 9.76885 1.28114C9.69609 1.21611 9.60188 1.18015 9.50426 1.18015C9.40663 1.18015 9.31243 1.21611 9.23966 1.28114C6.59724 3.15296 3.9513 5.01773 1.30182 6.87546C1.21092 6.92968 1.1364 7.00745 1.0861 7.10052C1.03579 7.1936 1.01159 7.29853 1.01607 7.40422C1.01607 10.7777 1.01607 14.1512 1.01607 17.5247L1.00548 17.9425Z" fill="#FF5800"/>
</svg>
