<svg width="12" height="20" viewBox="0 0 12 20" fill="none" xmlns="http://www.w3.org/2000/svg">
<g clip-path="url(#clip0_9_16)">
<path d="M2.83834 9.99571L5.42802 12.4245C7.23405 14.1143 9.04338 15.8032 10.856 17.4911C11.1014 17.7171 11.3501 17.9374 11.5921 18.1662C12.1127 18.6669 12.1194 19.3277 11.6121 19.7254C11.4896 19.8223 11.3453 19.8963 11.1882 19.9429C11.0311 19.9894 10.8645 20.0075 10.6989 19.9959C10.5333 19.9844 10.3723 19.9435 10.2259 19.8757C10.0794 19.808 9.95081 19.715 9.84801 19.6024C8.47084 18.3321 7.10139 17.0562 5.73969 15.7746C3.94914 14.1019 2.16193 12.4265 0.378016 10.7481C0.259681 10.6521 0.165373 10.5362 0.100915 10.4075C0.0364559 10.2789 0.00320435 10.1402 0.00320435 10C0.00320435 9.85985 0.0364559 9.72116 0.100915 9.5925C0.165373 9.46385 0.259681 9.34794 0.378016 9.25191L9.62588 0.592198C10.0138 0.228874 10.4018 -0.0972592 11.0517 0.0200344C11.24 0.0525399 11.4163 0.124191 11.5652 0.228781C11.7142 0.333372 11.8313 0.467738 11.9064 0.620223C11.9816 0.772709 12.0124 0.938711 11.9964 1.10383C11.9803 1.26894 11.9178 1.42818 11.8143 1.56773C11.6333 1.77888 11.4325 1.97694 11.2141 2.15992L5.95855 7.0834L2.83834 9.99571Z" fill="black"/>
</g>
<defs>
<clipPath id="clip0_9_16">
<rect width="12" height="20" fill="white"/>
</clipPath>
</defs>
</svg>
