<svg width="15" height="18" viewBox="0 0 15 18" fill="none" xmlns="http://www.w3.org/2000/svg">
<g clip-path="url(#clip0_3_67)">
<path d="M7.49447 17.9993H0.609874C0.190952 17.9993 0.00130125 17.8146 0.00324972 17.3882C0.00208889 15.9081 0.431671 14.4611 1.23728 13.2316C1.9257 12.1595 2.86724 11.2821 3.97488 10.6807C4.71368 10.2753 5.51515 10.003 6.34422 9.87554C7.60916 9.67052 8.90442 9.80277 10.1048 10.2595C11.4844 10.775 12.6827 11.6988 13.5471 12.9134C14.4713 14.1889 14.9415 15.6317 15.0013 17.2148C15.0104 17.3729 14.9932 17.5315 14.9506 17.6838C14.8857 17.8831 14.7227 17.984 14.5155 17.998C14.4616 18.0013 14.407 17.998 14.3531 17.998L7.49447 17.9993ZM1.06906 16.9145H13.929C13.6737 14.6147 12.6183 12.8363 10.6575 11.7283C8.34076 10.4203 6.00974 10.5398 3.81641 12.0604C2.16281 13.207 1.27365 14.8618 1.06906 16.9145Z" fill="black"/>
<path d="M7.50227 0.00132538C9.79302 -0.0438473 11.8311 1.90589 11.837 4.41763C11.8389 5.5944 11.3843 6.7239 10.573 7.55831C9.76172 8.39271 8.65994 8.86389 7.50941 8.86847C6.93622 8.87138 6.36817 8.75788 5.8382 8.53453C5.30823 8.31118 4.82689 7.98243 4.4221 7.56735C4.0173 7.15227 3.6971 6.65912 3.48008 6.1165C3.26305 5.57387 3.15352 4.99258 3.15782 4.40633C3.16691 1.83746 5.25308 -0.0491618 7.50227 0.00132538ZM10.7744 4.4236C10.7783 2.59411 9.3085 1.07617 7.52695 1.07152C7.09385 1.06784 6.66432 1.15179 6.26306 1.31855C5.8618 1.4853 5.49675 1.73156 5.18889 2.04317C4.88104 2.35477 4.63647 2.72556 4.46925 3.1342C4.30203 3.54284 4.21547 3.98128 4.21454 4.42427C4.21334 5.31319 4.55725 6.16623 5.1707 6.79591C5.78415 7.42559 6.61693 7.78039 7.48603 7.78233C7.91808 7.78452 8.34629 7.69918 8.74592 7.53122C9.14556 7.36326 9.50872 7.11602 9.81444 6.80376C10.1202 6.49149 10.3624 6.1204 10.5272 5.71188C10.6919 5.30336 10.776 4.86551 10.7744 4.4236Z" fill="black"/>
</g>
<defs>
<clipPath id="clip0_3_67">
<rect width="15" height="18" fill="white"/>
</clipPath>
</defs>
</svg>
