<svg width="21" height="21" viewBox="0 0 21 21" fill="none" xmlns="http://www.w3.org/2000/svg">
<path d="M12.7991 11.1938L14.1382 12.4823L19.5127 17.6763C19.8629 18.0151 20.2002 18.3708 20.5685 18.6916C21.2805 19.3101 21.0423 20.3293 20.356 20.779C20.1057 20.9495 19.8029 21.0252 19.5019 20.9926C19.2008 20.96 18.9212 20.8213 18.7131 20.6012C16.2615 18.0491 13.8043 15.5017 11.3416 12.959C11.2914 12.9075 11.2463 12.8508 11.1974 12.7941C9.33937 14.0581 7.33459 14.4447 5.18044 13.8648C3.55356 13.439 2.14039 12.4285 1.21078 11.0262C0.488022 9.95579 0.0722329 8.70759 0.00859026 7.41725C-0.0550524 6.12692 0.235886 4.84381 0.849793 3.70733C1.4637 2.57085 2.3771 1.62446 3.49075 0.970986C4.6044 0.317514 5.87571 -0.0180535 7.16656 0.000748903C8.4574 0.0195513 9.71842 0.392004 10.8126 1.07764C11.9068 1.76327 12.7922 2.73586 13.3728 3.88974C13.9534 5.04362 14.2069 6.33466 14.1058 7.62259C14.0046 8.91052 13.5527 10.1461 12.7991 11.195V11.1938ZM12.5815 7.05763C12.5814 5.95331 12.2508 4.87433 11.6324 3.95973C11.0139 3.04512 10.136 2.3368 9.1116 1.92603C8.08725 1.51526 6.96345 1.42086 5.885 1.65501C4.80656 1.88915 3.82289 2.44111 3.06074 3.23976C2.2986 4.0384 1.7929 5.04713 1.60881 6.13598C1.42472 7.22482 1.57068 8.34389 2.02787 9.34898C2.48507 10.3541 3.23255 11.1991 4.17401 11.7752C5.11546 12.3514 6.20775 12.6322 7.31012 12.5815C8.72981 12.5161 10.0696 11.9055 11.0508 10.8766C12.0319 9.8477 12.5788 8.47983 12.5777 7.05763H12.5815Z" fill="black"/>
</svg>
