<svg width="18" height="18" viewBox="0 0 18 18" fill="none" xmlns="http://www.w3.org/2000/svg">
<path d="M3.88604 16.2658C3.88604 15.8809 3.87963 15.4972 3.88604 15.1123C3.89156 15.0548 3.88019 14.9969 3.85346 14.9463C3.82672 14.8957 3.78589 14.8549 3.73641 14.8292C2.46349 13.9856 1.42249 12.9015 0.774809 11.4727C-0.521626 8.61071 -0.175339 5.91543 1.69503 3.45958C3.05132 1.68063 4.8768 0.662491 6.99086 0.221669C9.44158 -0.285164 11.7844 0.0672679 13.9615 1.38078C15.7784 2.47836 17.1176 4.03019 17.7022 6.17388C18.4557 8.95867 17.7546 11.3933 15.8789 13.4609C14.421 15.0619 12.5891 15.938 10.505 16.2658C9.44157 16.4402 8.35768 16.4262 7.29867 16.2244C7.23405 16.2109 7.16744 16.2118 7.10317 16.227C7.03891 16.2422 6.97842 16.2715 6.92566 16.3128C6.18606 16.8364 5.43791 17.35 4.69618 17.8713C4.51555 17.9978 4.33493 18.0503 4.13507 17.9396C3.9352 17.8288 3.87535 17.6408 3.87856 17.4126C3.89032 17.0322 3.88604 16.6484 3.88604 16.2658ZM4.84795 16.5645C4.92597 16.5142 4.97727 16.484 5.02536 16.4526C5.57472 16.0689 6.12728 15.6896 6.67129 15.2991C6.74401 15.2432 6.82734 15.2043 6.91566 15.185C7.00398 15.1657 7.09523 15.1665 7.18324 15.1872C8.34188 15.4433 9.5377 15.4548 10.7006 15.2208C12.6511 14.8314 14.3345 13.9229 15.5946 12.2894C16.9883 10.4792 17.4147 8.43394 16.7093 6.19626C16.1429 4.39829 14.9715 3.10827 13.4185 2.19418C11.5011 1.06415 9.43944 0.754235 7.28905 1.17156C5.33852 1.55085 3.65518 2.47277 2.40684 4.12193C0.822906 6.21975 0.523645 8.52568 1.6106 10.9681C2.21767 12.3331 3.21378 13.3423 4.45036 14.1008C4.74 14.2776 4.86398 14.4913 4.85008 14.8426C4.82871 15.4009 4.84046 15.9604 4.84046 16.5623L4.84795 16.5645Z" fill="black"/>
<path d="M9.00975 7.00007C9.13985 6.99856 9.26896 7.023 9.38951 7.07198C9.51005 7.12095 9.61963 7.19346 9.71183 7.28527C9.80402 7.37708 9.87699 7.48636 9.92647 7.6067C9.97594 7.72704 10.0009 7.85604 9.99996 7.98615C10.0024 8.25206 9.89936 8.5081 9.71336 8.69815C9.52736 8.8882 9.2736 8.99675 9.00769 9C8.7417 8.99707 8.4874 8.89025 8.29911 8.70234C8.11082 8.51444 8.00347 8.26036 8 7.99438C8.00053 7.86265 8.02713 7.73233 8.07826 7.61093C8.12938 7.48953 8.20402 7.37945 8.29788 7.28702C8.39174 7.1946 8.50296 7.12166 8.62514 7.07241C8.74731 7.02316 8.87803 6.99857 9.00975 7.00007Z" fill="black"/>
<path d="M13.0131 7.00006C13.1449 6.99918 13.2754 7.02485 13.397 7.07554C13.5185 7.12623 13.6286 7.20091 13.7207 7.29511C13.8128 7.3893 13.8849 7.50109 13.9328 7.6238C13.9807 7.7465 14.0034 7.87761 13.9996 8.00928C13.9961 8.27167 13.8901 8.52226 13.7042 8.70742C13.5183 8.89259 13.2673 8.99761 13.0049 9C12.7395 8.9942 12.4866 8.88589 12.2993 8.69775C12.112 8.50962 12.0047 8.25626 12 7.99078C12.0015 7.85919 12.0289 7.72918 12.0806 7.60818C12.1323 7.48717 12.2073 7.37754 12.3014 7.28554C12.3955 7.19354 12.5068 7.12098 12.6289 7.072C12.751 7.02301 12.8816 6.99857 13.0131 7.00006V7.00006Z" fill="black"/>
<path d="M4.00002 7.99746C3.99919 7.86581 4.0246 7.73532 4.07475 7.6136C4.12491 7.49188 4.1988 7.38137 4.29213 7.28852C4.38546 7.19567 4.49635 7.12234 4.61833 7.07282C4.74031 7.02329 4.87093 6.99856 5.00258 7.00006C5.26857 7.00224 5.52287 7.10971 5.70981 7.29895C5.89675 7.4882 6.00109 7.7438 5.99999 8.0098C5.99466 8.27234 5.88736 8.52251 5.70081 8.70733C5.51426 8.89215 5.26311 8.99711 5.00052 9C4.86888 9.00027 4.73849 8.97451 4.61685 8.9242C4.49521 8.87389 4.38471 8.80002 4.29172 8.70684C4.19874 8.61367 4.1251 8.50303 4.07503 8.38128C4.02497 8.25954 3.99948 8.12909 4.00002 7.99746V7.99746Z" fill="black"/>
</svg>
