<svg width="16" height="21" viewBox="0 0 16 21" fill="none" xmlns="http://www.w3.org/2000/svg">
<g clip-path="url(#clip0_10_45)">
<path d="M15.9982 6.87468C15.9982 6.07687 15.4804 5.57847 14.6487 5.57406C13.6596 5.56878 12.6531 5.57406 11.6731 5.57406H11.189C11.1132 5.57589 11.0377 5.58384 10.9633 5.59784L10.9069 5.60665L10.6703 5.63747V7.05783H14.4704V19.5286H1.54878V7.02437H5.33971V5.58111H5.06672C4.69 5.58111 4.31539 5.58111 3.94291 5.58111H3.91743C2.98926 5.58111 2.11295 5.5767 1.21481 5.58903C0.543256 5.59872 0.070984 6.04693 0.011836 6.73378C6.38398e-06 6.87644 0.00182943 7.01557 0.00364937 7.1503C0.00364937 7.19433 0.00364937 7.23835 0.00364937 7.28326V11.348C0.00364937 14.0584 0.00364937 16.7683 0.00364937 19.4775C0.00364937 20.6064 0.412221 21.0062 1.56788 21.0071H7.99773H14.6241C15.5223 21.0071 15.9973 20.5527 15.9982 19.695C16.0018 15.3212 16.0018 11.0107 15.9982 6.87468Z" fill="#040000"/>
<path d="M5.0831 4.23999H5.08856C5.29512 4.23999 5.50896 4.14049 5.70825 3.95028L5.7583 3.90273C5.8402 3.82436 5.9221 3.74599 6.00218 3.66586L7.12962 2.53608L7.26066 2.40487V12.6433C7.26066 12.7085 7.26066 12.7728 7.26066 12.8371C7.27431 13.2615 7.54912 13.5301 7.97863 13.5415H7.99956C8.42633 13.5415 8.70933 13.2879 8.73754 12.8793C8.74573 12.7666 8.74573 12.6557 8.74573 12.5412V8.51872C8.74573 6.48106 8.74573 4.44311 8.74573 2.40487L8.94228 2.60124C9.3909 3.04769 9.81131 3.46597 10.2299 3.88776C10.3955 4.05419 10.6221 4.24528 10.9097 4.24528C11.01 4.24179 11.1086 4.21825 11.1991 4.17612C11.2896 4.13399 11.3701 4.07418 11.4356 4.00048C11.7705 3.65969 11.725 3.28105 11.2991 2.87422C10.7762 2.37288 10.2542 1.87094 9.73305 1.36843L9.68665 1.3244L8.68568 0.36281C8.18701 -0.116224 7.81483 -0.117104 7.31252 0.36281C6.76654 0.887634 6.22056 1.41451 5.67458 1.94345L4.97664 2.61621C4.86441 2.72364 4.75278 2.83166 4.64176 2.94026C4.28414 3.29249 4.25775 3.68699 4.57078 4.00488C4.63518 4.07571 4.71382 4.13309 4.80191 4.17352C4.88999 4.21394 4.98567 4.23656 5.0831 4.23999Z" fill="#040000"/>
</g>
<defs>
<clipPath id="clip0_10_45">
<rect width="16" height="21" fill="white"/>
</clipPath>
</defs>
</svg>
